<svg xmlns="http://www.w3.org/2000/svg" xmlns:xlink="http://www.w3.org/1999/xlink" width="113.386" height="28.346" viewBox="0 0 113.386 28.346">
    <defs>
        <clipPath id="clip-path">
            <rect id="Прямоугольник_14538" data-name="Прямоугольник 14538" width="113.386" height="28.346" transform="translate(206.929 807.874)" fill="none" />
        </clipPath>
        <clipPath id="clip-path-2">
            <rect id="Прямоугольник_14535" data-name="Прямоугольник 14535" width="8.944" height="10.373" transform="translate(241.339 818.889) rotate(-18.161)" fill="none" />
        </clipPath>
        <clipPath id="clip-path-3">
            <rect id="Прямоугольник_14536" data-name="Прямоугольник 14536" width="3.534" height="11.047" transform="translate(260.129 817.456) rotate(-22.557)" fill="none" />
        </clipPath>
        <clipPath id="clip-path-4">
            <rect id="Прямоугольник_14537" data-name="Прямоугольник 14537" width="9.973" height="5.831" transform="translate(274.617 819.47)" fill="none" />
        </clipPath>
    </defs>
    <g id="Сгруппировать_10813" data-name="Сгруппировать 10813" transform="translate(-206.929 -807.874)">
        <g id="Сгруппировать_10812" data-name="Сгруппировать 10812" clip-path="url(#clip-path)">
            <path id="Контур_8881" data-name="Контур 8881" d="M221.362,822.157a6.933,6.933,0,0,0-.493-2.56,6.951,6.951,0,0,0-.6-1.163A6.887,6.887,0,0,0,207.62,821.5a6.883,6.883,0,0,0,.248,2.595,6.79,6.79,0,0,0,.487,1.215,6.839,6.839,0,0,0,1.611,2.049,6.81,6.81,0,0,0,1.066.759,6.89,6.89,0,0,0,9.237-2.24,6.961,6.961,0,0,0,.6-1.164,6.922,6.922,0,0,0,.493-2.559" fill="#f2f2f2" />
            <path id="Контур_8882" data-name="Контур 8882" d="M221.362,822.157a6.933,6.933,0,0,0-.493-2.56,6.951,6.951,0,0,0-.6-1.163A6.887,6.887,0,0,0,207.62,821.5a6.883,6.883,0,0,0,.248,2.595,6.79,6.79,0,0,0,.487,1.215,6.839,6.839,0,0,0,1.611,2.049,6.81,6.81,0,0,0,1.066.759,6.89,6.89,0,0,0,9.237-2.24,6.961,6.961,0,0,0,.6-1.164,6.922,6.922,0,0,0,.493-2.559" fill="none" stroke="#ed1c24" stroke-miterlimit="10" stroke-width="0.583" />
            <path id="Контур_8883" data-name="Контур 8883" d="M220.006,823.652c-2.44-1.463-4.237-6.614-4.256-6.666-.094-.254-.235-.4-.417-.4-.112,0-.253.067-.292.377-.008.067-.017.147-.027.231l-.127-.241c-.181-.341-.322-.341-.368-.341a.22.22,0,0,0-.214.18c-.027.122-.08.432-.114.656a2.836,2.836,0,0,0-.026.431c-.007.4-.024.649-.289.814-.11.07-.219.134-.326.2a3.878,3.878,0,0,0-1.093.839,3.735,3.735,0,0,0-.347.513c-.062.108-.122.209-.192.31a1.389,1.389,0,0,1-.585.419c-.021.011-.044.022-.064.034-.536.264-1.076.541-1.6.806l-.282.143c-.038.021-.08.041-.121.059-.2.091-.527.241-.367.631a1.862,1.862,0,0,0,.607.621,2.784,2.784,0,0,0,1.635.458,5.64,5.64,0,0,0,.674-.044l-.008,0c-.043.014-.087.028-.13.044-.083.028-.2.061-.313.091-.542.152-.876.257-.912.51-.013.087.011.216.2.337a3.5,3.5,0,0,0,1.705.389,4.4,4.4,0,0,0,1.152-.15,4.1,4.1,0,0,0,.417-.154,2.172,2.172,0,0,1,.733-.216.354.354,0,0,1,.12.013,1.7,1.7,0,0,1,.074.259.092.092,0,0,0,.012.057c.2.9.422,1.793.644,2.71a.187.187,0,0,0,.18.141h.455a.185.185,0,0,0,.162-.095,6.82,6.82,0,0,1,3.669-3.169.188.188,0,0,0,.125-.174v-.466A.2.2,0,0,0,220.006,823.652Z" />
            <path id="Контур_8884" data-name="Контур 8884" d="M209.825,826.973l-.286-.445,9.908-9.106.328.42-9.95,9.131-.286-.445" fill="#ed1c24" />
            <path id="Контур_8885" data-name="Контур 8885" d="M237.705,822.157a6.858,6.858,0,0,0-.125-1.3,6.788,6.788,0,0,0-.369-1.257,6.887,6.887,0,0,0-13.248,1.905,6.883,6.883,0,0,0,.248,2.595,6.789,6.789,0,0,0,.487,1.215,6.839,6.839,0,0,0,1.611,2.049,6.763,6.763,0,0,0,1.066.759,6.881,6.881,0,0,0,9.836-3.4,6.778,6.778,0,0,0,.369-1.256,6.866,6.866,0,0,0,.125-1.3" fill="#f2f2f2" />
            <path id="Контур_8886" data-name="Контур 8886" d="M237.705,822.157a6.858,6.858,0,0,0-.125-1.3,6.788,6.788,0,0,0-.369-1.257,6.887,6.887,0,0,0-13.248,1.905,6.883,6.883,0,0,0,.248,2.595,6.789,6.789,0,0,0,.487,1.215,6.839,6.839,0,0,0,1.611,2.049,6.763,6.763,0,0,0,1.066.759,6.881,6.881,0,0,0,9.836-3.4,6.778,6.778,0,0,0,.369-1.256,6.866,6.866,0,0,0,.125-1.3" fill="none" stroke="#ed1c24" stroke-miterlimit="10" stroke-width="0.583" />
            <path id="Контур_8887" data-name="Контур 8887" d="M232.106,817.953a.333.333,0,0,0-.232.095.329.329,0,0,0-.1.234.335.335,0,0,0,.33.331.333.333,0,0,0,.33-.331.328.328,0,0,0-.33-.329Z" />
            <path id="Контур_8888" data-name="Контур 8888" d="M233.4,817.686a.33.33,0,0,0,.064.654h.065a.333.333,0,0,0,.259-.391A.327.327,0,0,0,233.4,817.686Z" />
            <path id="Контур_8889" data-name="Контур 8889" d="M234.831,818.066a.33.33,0,0,0,0-.66.335.335,0,0,0-.233.1.327.327,0,0,0-.1.232.326.326,0,0,0,.329.33Z" />
            <path id="Контур_8890" data-name="Контур 8890" d="M232.106,819.587a.33.33,0,0,0,0,.66.33.33,0,1,0,0-.66Z" />
            <path id="Контур_8891" data-name="Контур 8891" d="M233.533,819.865a.331.331,0,0,0-.129.649h.066a.327.327,0,0,0,.063-.649Z" />
            <path id="Контур_8892" data-name="Контур 8892" d="M234.831,820.132a.331.331,0,0,0-.233.564.336.336,0,0,0,.233.1.328.328,0,0,0,.331-.33.331.331,0,0,0-.331-.329Z" />
            <path id="Контур_8893" data-name="Контур 8893" d="M233.431,819.332a.332.332,0,0,0,0-.465.331.331,0,0,0-.235-.1.33.33,0,0,0,0,.66A.332.332,0,0,0,233.431,819.332Z" />
            <path id="Контур_8894" data-name="Контур 8894" d="M234.616,819.1a.331.331,0,1,0-.329.329A.33.33,0,0,0,234.616,819.1Z" />
            <path id="Контур_8895" data-name="Контур 8895" d="M235.61,818.867a.331.331,0,0,0-.564.232.334.334,0,0,0,.1.233.324.324,0,0,0,.233.1.329.329,0,0,0,.33-.329A.327.327,0,0,0,235.61,818.867Z" />
            <path id="Контур_8896" data-name="Контур 8896" d="M230.361,819.042H228.4a.987.987,0,0,0-.986.985v2.383h3.933v-2.383A.987.987,0,0,0,230.361,819.042Z" />
            <path id="Контур_8897" data-name="Контур 8897" d="M230.256,817.736a.33.33,0,0,0-.33-.33h-1.091a.329.329,0,0,0-.329.33v.83h1.749v-.83Z" />
            <path id="Контур_8898" data-name="Контур 8898" d="M227.415,827a.333.333,0,0,0,.331.332h3.271a.332.332,0,0,0,.33-.332v-4.13h-3.933V827Z" />
            <path id="Контур_8899" data-name="Контур 8899" d="M226.045,826.954l-.383-.4,9.951-9.2.42.4-9.988,9.2-.383-.4" fill="#ed1c24" />
            <path id="Контур_8900" data-name="Контур 8900" d="M254.237,822.157a6.887,6.887,0,0,0-11.4-5.2,6.883,6.883,0,0,0,0,10.409,6.763,6.763,0,0,0,1.066.759,6.888,6.888,0,0,0,10.33-5.963" fill="#f2f2f2" />
            <path id="Контур_8901" data-name="Контур 8901" d="M254.237,822.157a6.887,6.887,0,0,0-11.4-5.2,6.883,6.883,0,0,0,0,10.409,6.763,6.763,0,0,0,1.066.759,6.888,6.888,0,0,0,10.33-5.963" fill="none" stroke="#ed1c24" stroke-miterlimit="10" stroke-width="0.583" />
            <g id="Сгруппировать_10807" data-name="Сгруппировать 10807">
                <g id="Сгруппировать_10806" data-name="Сгруппировать 10806" clip-path="url(#clip-path-2)">
                    <path id="Контур_8902" data-name="Контур 8902" d="M250.809,819.993a.079.079,0,0,0,.061-.133,4.524,4.524,0,0,0-5.887-1.061l-.353-.482a.354.354,0,1,0-.57.419l.353.481a4.524,4.524,0,0,0-.743,5.932.079.079,0,0,0,.147-.016,2.157,2.157,0,0,1,2.01-1.511.213.213,0,0,0,.161-.121,3.269,3.269,0,0,1,1.035-1.321,3.317,3.317,0,0,1,1.584-.6.184.184,0,0,0,.162-.117A2.155,2.155,0,0,1,250.809,819.993Z" />
                </g>
            </g>
            <path id="Контур_8903" data-name="Контур 8903" d="M249.219,826.435a.289.289,0,0,1-.366-.183l-1.076-3.28a.057.057,0,0,0-.012-.042.372.372,0,1,0-.707.231l1.1,3.358a1.035,1.035,0,0,0,1.954-.682.373.373,0,0,0-.709.231A.29.29,0,0,1,249.219,826.435Z" />
            <path id="Контур_8904" data-name="Контур 8904" d="M242.661,826.825l-.43-.407,9.832-8.951.365.365-9.767,8.993-.43-.407" fill="#ed1c24" />
            <path id="Контур_8905" data-name="Контур 8905" d="M270.766,822.157a6.887,6.887,0,0,0-2.892-5.61,6.882,6.882,0,0,0-7.437-.354,6.851,6.851,0,0,0-1.97,1.707,6.812,6.812,0,0,0-.708,1.1,6.984,6.984,0,0,0-.487,1.216,6.907,6.907,0,0,0,0,3.88,6.94,6.94,0,0,0,.487,1.215,6.821,6.821,0,0,0,.708,1.1,6.912,6.912,0,0,0,.9.947,6.918,6.918,0,0,0,2.257,1.3,6.892,6.892,0,0,0,7.237-1.755,6.881,6.881,0,0,0,1.9-4.752" fill="#f2f2f2" />
            <path id="Контур_8906" data-name="Контур 8906" d="M270.766,822.157a6.887,6.887,0,0,0-2.892-5.61,6.882,6.882,0,0,0-7.437-.354,6.851,6.851,0,0,0-1.97,1.707,6.812,6.812,0,0,0-.708,1.1,6.984,6.984,0,0,0-.487,1.216,6.907,6.907,0,0,0,0,3.88,6.94,6.94,0,0,0,.487,1.215,6.821,6.821,0,0,0,.708,1.1,6.912,6.912,0,0,0,.9.947,6.918,6.918,0,0,0,2.257,1.3,6.892,6.892,0,0,0,7.237-1.755,6.881,6.881,0,0,0,1.9-4.752" fill="none" stroke="#ed1c24" stroke-miterlimit="10" stroke-width="0.583" />
            <g id="Сгруппировать_10809" data-name="Сгруппировать 10809">
                <g id="Сгруппировать_10808" data-name="Сгруппировать 10808" clip-path="url(#clip-path-3)">
                    <path id="Контур_8907" data-name="Контур 8907" d="M259.287,818.661a.828.828,0,0,0,.067.931,3.114,3.114,0,0,0,1.124,1,2.381,2.381,0,0,1,.789.888A13.489,13.489,0,0,0,263.7,824a4.77,4.77,0,0,0,1.7.725,3.76,3.76,0,0,1,1.23.783l-.121.123.213.212.077-.009.433.432a3.422,3.422,0,0,0,.576-.514,3.285,3.285,0,0,0,.51-.578l-.434-.431.01-.076-.215-.214-.12.122a3.752,3.752,0,0,1-.788-1.228,4.854,4.854,0,0,0-.732-1.7,13.416,13.416,0,0,0-2.537-2.421,2.381,2.381,0,0,1-.887-.785,3.116,3.116,0,0,0-1-1.119.823.823,0,0,0-.929-.063Z" fill="#040305" />
                </g>
            </g>
            <path id="Контур_8908" data-name="Контур 8908" d="M259.192,826.825l-.43-.407,9.83-8.951.365.365-9.764,8.993-.43-.407" fill="#ed1c24" />
            <path id="Контур_8909" data-name="Контур 8909" d="M287.1,822.158a6.869,6.869,0,0,0-.493-2.559,6.958,6.958,0,0,0-.6-1.164,6.864,6.864,0,0,0-1.8-1.886A6.887,6.887,0,0,0,274.089,819a6.985,6.985,0,0,0-.487,1.216,6.905,6.905,0,0,0,0,3.88,6.946,6.946,0,0,0,.487,1.215,6.881,6.881,0,0,0,1.611,2.049,6.888,6.888,0,0,0,1.067.76,6.964,6.964,0,0,0,1.191.544A6.886,6.886,0,0,0,286,825.881a6.894,6.894,0,0,0,.969-2.42,6.864,6.864,0,0,0,.124-1.3" fill="#f2f2f2" />
            <path id="Контур_8910" data-name="Контур 8910" d="M287.1,822.158a6.869,6.869,0,0,0-.493-2.559,6.958,6.958,0,0,0-.6-1.164,6.864,6.864,0,0,0-1.8-1.886A6.887,6.887,0,0,0,274.089,819a6.985,6.985,0,0,0-.487,1.216,6.905,6.905,0,0,0,0,3.88,6.946,6.946,0,0,0,.487,1.215,6.881,6.881,0,0,0,1.611,2.049,6.888,6.888,0,0,0,1.067.76,6.964,6.964,0,0,0,1.191.544A6.886,6.886,0,0,0,286,825.881a6.894,6.894,0,0,0,.969-2.42,6.864,6.864,0,0,0,.124-1.3" fill="none" stroke="#ed1c24" stroke-miterlimit="10" stroke-width="0.583" />
            <g id="Сгруппировать_10811" data-name="Сгруппировать 10811">
                <g id="Сгруппировать_10810" data-name="Сгруппировать 10810" clip-path="url(#clip-path-4)">
                    <path id="Контур_8911" data-name="Контур 8911" d="M279.686,822.023a.93.93,0,0,1,.069-.35h.669L280.2,822a.336.336,0,0,0,.087.47.322.322,0,0,0,.191.061.337.337,0,0,0,.277-.146l.2-.294.115.747a.91.91,0,0,1-.452.123A.937.937,0,0,1,279.686,822.023Zm-5.056-1.869a.672.672,0,0,0,.642.672.5.5,0,0,0-.134.341.506.506,0,0,0,.506.507h3.408a1.6,1.6,0,0,0,2.128,1.853l.215,1.4a.41.41,0,0,0,.406.347h2.219a.412.412,0,0,0,.392-.529l-.941-3.062h.712a.405.405,0,0,0,.356-.208.422.422,0,0,0,0-.413l-.852-1.4a.407.407,0,0,0-.348-.2h-8.024A.691.691,0,0,0,274.63,820.154Z" />
                </g>
            </g>
            <path id="Контур_8912" data-name="Контур 8912" d="M275.09,826.683l-.346-.4,10.132-9.1.383.365-10.168,9.131-.346-.4" fill="#ed1c24" />
            <path id="Контур_8913" data-name="Контур 8913" d="M303.082,820.43a6.887,6.887,0,1,1-8.394-4.937A6.887,6.887,0,0,1,303.082,820.43Z" fill="#f2f2f2" />
            <path id="Контур_8914" data-name="Контур 8914" d="M303.082,820.43a6.887,6.887,0,1,1-8.394-4.937A6.887,6.887,0,0,1,303.082,820.43Z" fill="none" stroke="#ed1c24" stroke-miterlimit="10" stroke-width="0.583" />
            <path id="Контур_8915" data-name="Контур 8915" d="M295.317,821.9s-.067,1.579-1.3,1.579-1.4-1.579-1.4-1.579Zm4.092,3.314h-2.485v-2.986h2.485Zm-.631-5.877v-1.012h-1.253v1.012a1.523,1.523,0,0,0-.9,1.392v6.021h3.05v-6.02A1.519,1.519,0,0,0,298.778,819.333Zm0-1.348h-1.253V816.9h1.253ZM294,823.6a1.612,1.612,0,0,1-1.446-1.739,2,2,0,0,1,.207-.9h2.478a1.98,1.98,0,0,1,.21.9A1.615,1.615,0,0,1,294,823.6Zm1.762-1.739a2.28,2.28,0,0,0-.292-1.136l-.045-.078h-2.852l-.044.079a2.3,2.3,0,0,0-.294,1.136,1.984,1.984,0,0,0,1.514,2.036v2.415c-.492.023-.858.1-.858.186,0,.105.5.188,1.118.188s1.121-.083,1.121-.188c0-.09-.369-.165-.861-.186V823.9A1.986,1.986,0,0,0,295.76,821.863Z" />
            <path id="Контур_8916" data-name="Контур 8916" d="M291.452,826.734l-.328-.419,10.15-9.059.328.364-10.15,9.114-.328-.419" fill="#ed1c24" />
            <path id="Контур_8917" data-name="Контур 8917" d="M319.831,822.16a6.879,6.879,0,0,0-2.892-5.609,6.887,6.887,0,0,0-8.5,10.814,6.988,6.988,0,0,0,1.066.759,6.88,6.88,0,0,0,1.191.544,6.976,6.976,0,0,0,1.273.309,6.887,6.887,0,0,0,6.773-3.094,6.872,6.872,0,0,0,1.093-3.723" fill="#f2f2f2" />
            <path id="Контур_8918" data-name="Контур 8918" d="M319.831,822.16a6.879,6.879,0,0,0-2.892-5.609,6.887,6.887,0,0,0-8.5,10.814,6.988,6.988,0,0,0,1.066.759,6.88,6.88,0,0,0,1.191.544,6.976,6.976,0,0,0,1.273.309,6.887,6.887,0,0,0,6.773-3.094,6.872,6.872,0,0,0,1.093-3.723" fill="none" stroke="#ed1c24" stroke-miterlimit="10" stroke-width="0.583" />
            <path id="Контур_8919" data-name="Контур 8919" d="M311.623,824.577v1.041h.848v1.766h.6v-1.766h.884v-3.373Z" />
            <path id="Контур_8920" data-name="Контур 8920" d="M310.23,819.789h-.941l-.292-.9-.292.9h-.941l.763.545-.292.886.76-.553.76.557-.289-.892Z" />
            <path id="Контур_8921" data-name="Контур 8921" d="M317.506,824.17h-.943l-.292-.9-.289.9h-.941l.76.546-.292.886.76-.553.763.556-.292-.891Z" />
            <path id="Контур_8922" data-name="Контур 8922" d="M310.469,822.411a.292.292,0,1,1-.292-.292A.291.291,0,0,1,310.469,822.411Z" />
            <path id="Контур_8923" data-name="Контур 8923" d="M315.731,821.812a.291.291,0,1,1-.292-.292A.29.29,0,0,1,315.731,821.812Z" />
            <path id="Контур_8924" data-name="Контур 8924" d="M311.635,826.473a.292.292,0,1,1-.291-.292A.291.291,0,0,1,311.635,826.473Z" />
            <path id="Контур_8925" data-name="Контур 8925" d="M309.268,824.743a.292.292,0,1,1-.292-.291A.291.291,0,0,1,309.268,824.743Z" />
            <path id="Контур_8926" data-name="Контур 8926" d="M316.3,826.51a.291.291,0,1,1-.291-.291A.29.29,0,0,1,316.3,826.51Z" />
            <circle id="Эллипс_3027" data-name="Эллипс 3027" cx="0.292" cy="0.292" r="0.292" transform="translate(310.168 817.742)" />
            <path id="Контур_8927" data-name="Контур 8927" d="M316.3,818.915a.291.291,0,1,1-.291-.291A.29.29,0,0,1,316.3,818.915Z" />
            <path id="Контур_8928" data-name="Контур 8928" d="M313.955,820.39h.841l-2-3.454-1.994,3.454h.818v3.335l2.331-2.33Z" />
            <path id="Контур_8929" data-name="Контур 8929" d="M307.951,826.651l-.419-.42,10.107-9.1.426.445-10.114,9.071-.419-.42" fill="#ed1c24" />
        </g>
    </g>
</svg>
  