<svg xmlns="http://www.w3.org/2000/svg" width="176.78" height="84.347" viewBox="0 0 176.78 84.347">
  <g id="Сгруппировать_10831" data-name="Сгруппировать 10831" transform="translate(-529 -332)">
    <path id="Контур_17" data-name="Контур 17" d="M44.4,85.032A16.912,16.912,0,0,1,32.143,57.069a15.673,15.673,0,0,0-2.7,5.532,15.505,15.505,0,0,0-.482,3.114,15.694,15.694,0,0,0,.979,6.3,15.491,15.491,0,0,0,3.206,5.148,15.779,15.779,0,0,0,17.136,3.908h0a15.695,15.695,0,0,0,9.778-11.615,15.56,15.56,0,0,0-2.5-11.88,13.025,13.025,0,0,0-3.024-3.145c-1.5-1.118-7.314-3.544-15.194-5.231A42.743,42.743,0,0,1,27.19,44.791a38.355,38.355,0,0,1-8.266-6.529c-6.595-6.739-8.392-16.329-8.392-16.329a41.974,41.974,0,0,0,12.64,14.558C25.03,37.8,27.035,39.1,29.137,40.3a92.866,92.866,0,0,0,12.078,5.662C48,48.62,54.653,54.073,54.653,54.073s2.128,1.857,2.818,2.609a16.811,16.811,0,0,1,1.885,2.486,17.066,17.066,0,0,1,2.328,6.183,16.812,16.812,0,0,1-.212,6.561A16.971,16.971,0,0,1,44.95,85.042Q44.673,85.042,44.4,85.032Zm-.6-41.191a42.746,42.746,0,0,1-10.061-8.13,38.356,38.356,0,0,1-5.689-8.864c-4.041-8.518-2.619-18.172-2.619-18.172a41.976,41.976,0,0,0,7.212,17.881c1.33,1.844,2.8,3.726,4.4,5.546a92.858,92.858,0,0,0,9.576,9.286,40.9,40.9,0,0,1,9.448,11.568A74.975,74.975,0,0,0,43.8,43.841Zm4.6-4.279a42.746,42.746,0,0,1-7.43-10.589,38.355,38.355,0,0,1-3.026-10.089C36.407,9.582,40.436.695,40.436.695a41.973,41.973,0,0,0,2,19.176c.77,2.139,1.667,4.354,2.7,6.543A92.868,92.868,0,0,0,51.786,37.98,40.9,40.9,0,0,1,57.679,51.7,74.981,74.981,0,0,0,48.4,39.562Zm7.659,2.983a15.479,15.479,0,0,0-1.69-3.123l1.784-4.646a9.686,9.686,0,0,1-1.952-.513,15.621,15.621,0,0,1-2.088-1.038,7.318,7.318,0,0,0,1.587.313,3.477,3.477,0,0,0,1.731-.207,11.334,11.334,0,0,1,3.789-1.3,5.5,5.5,0,0,1,3,.412s.678-.146,1.795-.313a8.9,8.9,0,0,1,2.164-.035s-.746.354-1.951,1.016A17.856,17.856,0,0,0,62.086,34.5a3.022,3.022,0,0,1-1.038,1.854,10.5,10.5,0,0,1-2.777,1.472,4.909,4.909,0,0,1,.919,2.508,12.749,12.749,0,0,1-.446,3.562s-.45,1.585-.639,2.576a4.416,4.416,0,0,0-.118,1.387S56.963,44.655,56.059,42.545Z" transform="translate(518.468 331.305)" fill="#036f96"/>
    <path id="Контур_93" data-name="Контур 93" d="M12.184-34.718q0,.151-.318.151H11.7q-.212,0-.772-.015t-.863-.015q-.454,0-1.059.015H8.083q-.318,0-.318-.136,0-.151.439-.151a1.575,1.575,0,0,0,.938-.166,3.073,3.073,0,0,0,.076-1.014v-7.839q0,.015-.166.53Q8.446-41.529,7.3-37.851l-.711,2.406q-.212.711-.3.711-.106,0-.227-.363-.439-1.377-2.482-6.871l-.605-1.619q.015.288.015.787v4.918q0,2.769.045,2.8.106.2.726.2.5,0,.5.136,0,.151-.318.151-.2,0-.363-.015-.212-.015-.378-.015l-1.74.045q-.272,0-.272-.136,0-.151.863-.166.363,0,.424-.121a2.711,2.711,0,0,0,.061-.787v-7.249q0-1.256-.03-1.362a.411.411,0,0,0-.257-.288,3.642,3.642,0,0,0-.847-.121q-.242-.015-.242-.136,0-.166.439-.166.061,0,.257.015h.787q.893,0,1.256-.015.076.2.893,2.376.348.908,1.952,5.3.288-.984.59-1.937l1.6-5.009q.136-.439.242-.726l2.27-.015a1.85,1.85,0,0,1,.575.045.149.149,0,0,1,.076.136q0,.151-.257.151a3.523,3.523,0,0,0-.575.03.754.754,0,0,0-.5.242,8.95,8.95,0,0,0-.076,1.771v7.037q0,.605.121.711a2.131,2.131,0,0,0,.984.136h.091Q12.184-34.87,12.184-34.718ZM22.1-34.7q0,.136-.227.136a2.212,2.212,0,0,1-.272-.015l-1.922-.03-1.922.03a1.607,1.607,0,0,1-.227.015q-.3,0-.3-.151,0-.166.409-.166,1.332-.015,1.332-.272a.907.907,0,0,0-.03-.121l-.121-.409-.076-.212q-.136-.469-.666-2.073H14.833a16.3,16.3,0,0,0-.908,2.785.233.233,0,0,0,.182.257q.045.015.757.061.439.015.439.151,0,.151-.393.151-.7,0-1.619-.061-.227-.015-.469-.015a3.547,3.547,0,0,0-.469.03,1.655,1.655,0,0,1-.2.015q-.212,0-.212-.136t.477-.151a1.477,1.477,0,0,0,.689-.144.868.868,0,0,0,.333-.492q1.952-5.569,3.178-8.944a2.007,2.007,0,0,1,.121-.409l.076-.272q.045-.166.121-.166.045,0,.076.091.2.59.893,2.467.545,1.468,2.709,7.37a.707.707,0,0,0,.31.424,2.271,2.271,0,0,0,.779.106Q22.1-34.839,22.1-34.7ZM17.981-38.32l-.8-2.255-.726-2.073q-.636,1.665-1.529,4.328Zm13.635-1.513a5,5,0,0,1-1.861,4.147,5.672,5.672,0,0,1-3.647,1.09q-.061,0-.537-.015t-1.385-.015h-.757l-1.2.015a1.607,1.607,0,0,1-.227.015q-.288,0-.288-.151,0-.136.484-.136.62,0,.772-.227a1.557,1.557,0,0,0,.061-.575v-8.157a1.754,1.754,0,0,0-.114-.863q-.114-.121-.779-.121-.348,0-.348-.166,0-.121.257-.121l.333.015q.348.015.681.015h1.619a13.653,13.653,0,0,1,3.859.378,4.121,4.121,0,0,1,2.225,1.793A5.636,5.636,0,0,1,31.616-39.834Zm-1.695-.061a5.677,5.677,0,0,0-.984-3.685,3.787,3.787,0,0,0-3.072-1.173,2.086,2.086,0,0,0-1.226.212,1.563,1.563,0,0,0-.091.726v8.051a3.189,3.189,0,0,0,.023.515.247.247,0,0,0,.129.151,4.074,4.074,0,0,0,1.529.182,3.318,3.318,0,0,0,2.633-1.15A5.729,5.729,0,0,0,29.921-39.894ZM42.043-34.7q0,.136-.227.136a2.212,2.212,0,0,1-.272-.015l-1.922-.03-1.922.03a1.607,1.607,0,0,1-.227.015q-.3,0-.3-.151,0-.166.409-.166,1.332-.015,1.332-.272a.907.907,0,0,0-.03-.121l-.121-.409-.076-.212q-.136-.469-.666-2.073H34.779a16.3,16.3,0,0,0-.908,2.785.233.233,0,0,0,.182.257q.045.015.757.061.439.015.439.151,0,.151-.393.151-.7,0-1.619-.061-.227-.015-.469-.015a3.547,3.547,0,0,0-.469.03,1.655,1.655,0,0,1-.2.015q-.212,0-.212-.136t.477-.151a1.477,1.477,0,0,0,.689-.144.868.868,0,0,0,.333-.492q1.952-5.569,3.178-8.944a2.007,2.007,0,0,1,.121-.409l.076-.272q.045-.166.121-.166.045,0,.076.091.2.59.893,2.467.545,1.468,2.709,7.37a.707.707,0,0,0,.31.424,2.271,2.271,0,0,0,.779.106Q42.043-34.839,42.043-34.7ZM37.927-38.32l-.8-2.255L36.4-42.648q-.636,1.665-1.529,4.328Zm13.151-6.644q0,.151-.378.136l-.333-.015h-.272q-.242,0-.288.083a1.54,1.54,0,0,0-.045.507v8.717q0,.8-.015.938t-.091.136q-.091,0-.212-.166l-1.937-2.83q-1.68-2.467-4.086-6.159l.015,8.445a.265.265,0,0,0,.227.25,6.135,6.135,0,0,0,1.014.068q.2,0,.2.121,0,.151-.393.151-.136,0-.863-.045-.242-.015-.469-.015.015,0-.265.03t-.855.03h-.151q-.348,0-.348-.136t.3-.136a2.925,2.925,0,0,0,1.037-.114q.144-.1.144-.643v-7.461q0-1.256-.515-1.574a1.747,1.747,0,0,0-.863-.151q-.393,0-.393-.151,0-.136.227-.136.3,0,.772.015l.5.015q.045,0,.424-.015.5,0,.969-.015l5.221,7.764v-6.735q0-.469-.015-.568a.2.2,0,0,0-.121-.151,2.594,2.594,0,0,0-.726-.053q-.545,0-.545-.136,0-.151.363-.151h.953q.242.015.288.015l.272-.015h.923Q51.078-45.115,51.078-44.964Zm4.57,10.246q0,.121-.182.121h-.151a19.373,19.373,0,0,0-2.058-.045q-.378,0-.757.03-.2.015-.605.015-.2,0-.2-.136,0-.121.393-.136.605-.015.711-.144a1.924,1.924,0,0,0,.106-.87v-7.96a2.241,2.241,0,0,0-.076-.832q-.091-.151-.832-.182-.288-.015-.288-.121,0-.136.182-.136l2.043.03q.227,0,.878-.015l.575-.015q.242,0,.242.136,0,.121-.666.151-.378.015-.462.136a1.423,1.423,0,0,0-.083.636v8.081a2.673,2.673,0,0,0,.076.938,1.787,1.787,0,0,0,.984.2Q55.649-34.839,55.649-34.718Zm9.746-10.261q0,.121-.257.121-.832.015-1.029.288A19.723,19.723,0,0,0,62.807-42q-.5,1.074-.938,1.892a3.811,3.811,0,0,0-.348.764,5.241,5.241,0,0,0-.045.885v2.86q0,.5.129.59a2.611,2.611,0,0,0,.9.136q.409.03.409.151T62.7-34.6h-.182L60.4-34.643q-.893,0-1.468.03a1.3,1.3,0,0,1-.212.015q-.212,0-.212-.136t.348-.151a2.311,2.311,0,0,0,.984-.151q.151-.121.151-.726v-3.193q-.151-.333-.878-1.771l-1.513-3q-.227-.439-.545-.984a1.151,1.151,0,0,0-.719-.151q-.552,0-.552-.166,0-.121.242-.121.318,0,1.271.03.545.015.787.015l1.756-.015a1.728,1.728,0,0,1,.242-.015q.272,0,.272.151,0,.136-.515.136-.938,0-.938.333a10.235,10.235,0,0,0,.953,2.073l1.377,2.618q.378-.681.863-1.68l.893-1.8a3.883,3.883,0,0,0,.5-1.271q0-.2-.257-.227a3.931,3.931,0,0,0-.711-.061q-.333.015-.333-.151,0-.121.288-.121l.878.015.5-.015Q65.395-45.176,65.395-44.979Zm13,10.246q0,.136-.288.136l-2.088-.015q-.212,0-.62.015t-.605.015q-.3,0-.3-.121t.711-.166q.378-.03.439-.129a2.119,2.119,0,0,0,.061-.7v-4.419H71.146v4.283a1.658,1.658,0,0,0,.106.8,1.305,1.305,0,0,0,.711.166q.393.03.393.136,0,.136-.3.136h-.136q-.363,0-.764-.015t-.477-.015q-.212,0-.636.015T68.77-34.6q-.3,0-.3-.121t.3-.151l.409-.03a.6.6,0,0,0,.424-.151,3.651,3.651,0,0,0,.045-.847v-7.991a2.5,2.5,0,0,0-.068-.8q-.068-.121-.477-.136-.469-.03-.552-.045t-.083-.121q0-.121.2-.121.061,0,.257.015.378.03,1.786.03.772,0,1.075-.015a1.993,1.993,0,0,1,.272-.015q.272,0,.272.151,0,.136-.492.136t-.59.114a1.458,1.458,0,0,0-.1.719V-40.5H75.7v-3.254a2.014,2.014,0,0,0-.121-.946q-.121-.144-.847-.129-.227,0-.227-.136t.257-.136h.817q.545.015.817.015.923,0,1.249-.015t.416-.015q.318,0,.318.136t-.666.151a.989.989,0,0,0-.288.03.256.256,0,0,0-.189.166,3.622,3.622,0,0,0-.038.711v8.051a2.478,2.478,0,0,0,.076.847q.151.166.878.166Q78.395-34.885,78.395-34.734Zm10.215.03q0,.136-.227.136a2.212,2.212,0,0,1-.272-.015l-1.922-.03-1.922.03a1.607,1.607,0,0,1-.227.015q-.3,0-.3-.151,0-.166.409-.166,1.332-.015,1.332-.272a.907.907,0,0,0-.03-.121l-.121-.409L85.25-35.9q-.136-.469-.666-2.073H81.346a16.3,16.3,0,0,0-.908,2.785.233.233,0,0,0,.182.257q.045.015.757.061.439.015.439.151,0,.151-.393.151-.7,0-1.619-.061-.227-.015-.469-.015a3.547,3.547,0,0,0-.469.03,1.655,1.655,0,0,1-.2.015q-.212,0-.212-.136t.477-.151a1.477,1.477,0,0,0,.689-.144.868.868,0,0,0,.333-.492q1.952-5.569,3.178-8.944a2.007,2.007,0,0,1,.121-.409l.076-.272q.045-.166.121-.166.045,0,.076.091.2.59.893,2.467.545,1.468,2.709,7.37a.707.707,0,0,0,.31.424,2.271,2.271,0,0,0,.779.106Q88.61-34.839,88.61-34.7ZM84.493-38.32l-.8-2.255-.726-2.073q-.636,1.665-1.529,4.328Zm12.788-6.659q0,.121-.257.121-.832.015-1.029.288A19.726,19.726,0,0,0,94.694-42q-.5,1.074-.938,1.892a3.811,3.811,0,0,0-.348.764,5.241,5.241,0,0,0-.045.885v2.86q0,.5.129.59a2.611,2.611,0,0,0,.9.136q.409.03.409.151t-.212.121h-.182l-2.119-.045q-.893,0-1.468.03a1.3,1.3,0,0,1-.212.015q-.212,0-.212-.136t.348-.151a2.311,2.311,0,0,0,.984-.151q.151-.121.151-.726v-3.193q-.151-.333-.878-1.771l-1.513-3q-.227-.439-.545-.984a1.151,1.151,0,0,0-.719-.151q-.552,0-.552-.166,0-.121.242-.121.318,0,1.271.03.545.015.787.015l1.756-.015a1.728,1.728,0,0,1,.242-.015q.272,0,.272.151,0,.136-.515.136-.938,0-.938.333a10.235,10.235,0,0,0,.953,2.073l1.377,2.618q.378-.681.863-1.68l.893-1.8a3.883,3.883,0,0,0,.5-1.271q0-.2-.257-.227a3.931,3.931,0,0,0-.711-.061q-.333.015-.333-.151,0-.121.288-.121l.878.015.5-.015Q97.281-45.176,97.281-44.979Zm10.094,5.191a5.611,5.611,0,0,1-1.354,3.814,4.236,4.236,0,0,1-3.322,1.559A4.536,4.536,0,0,1,99.188-36a5.614,5.614,0,0,1-1.423-3.9,5.525,5.525,0,0,1,1.37-3.867,4.524,4.524,0,0,1,3.5-1.506,4.287,4.287,0,0,1,3.375,1.574A5.756,5.756,0,0,1,107.376-39.788Zm-1.695.076a7.164,7.164,0,0,0-1.135-4.313,2.32,2.32,0,0,0-1.983-.969,2.392,2.392,0,0,0-1.877.742,6.543,6.543,0,0,0-1.226,4.434,7.052,7.052,0,0,0,.855,3.783,2.692,2.692,0,0,0,2.4,1.347,2.345,2.345,0,0,0,2.164-1.271A7.565,7.565,0,0,0,105.681-39.713Zm10.972-2.709q0,.2-.182.2t-.257-.393l-.061-.545a2.63,2.63,0,0,0-.348-.923,1.489,1.489,0,0,0-1.044-.636A3.27,3.27,0,0,0,114-44.8q-.711.03-.863.045v9.126q0,.545.288.681a2.787,2.787,0,0,0,.847.091q.182.015.182.136,0,.136-.242.136A1.3,1.3,0,0,1,114-34.6q-.908-.03-1.286-.03-.5,0-.938.015t-1.12.015q-.348,0-.348-.121,0-.136.651-.151.469,0,.605-.2a1.5,1.5,0,0,0,.076-.62v-9.065a7.494,7.494,0,0,0-1.861.151q-.953.348-1.12,1.861-.045.454-.212.454-.182,0-.182-.318,0-.166.015-.333l.03-.348q.045-.7.136-1.831h.681l3.087.045q.545.015,1.695-.015l2.512-.045q.03.847.2,2.512a.541.541,0,0,0,.015.113A.592.592,0,0,1,116.653-42.421Z" transform="translate(589.127 422.959)"/>
  </g>
</svg>
