<svg xmlns="http://www.w3.org/2000/svg" width="44" height="44" viewBox="0 0 44 44">
  <g id="Сгруппировать_10696" data-name="Сгруппировать 10696" transform="translate(0.494 0)">
    <g id="telegram">
      <circle id="Эллипс_3001" data-name="Эллипс 3001" cx="22" cy="22" r="22" transform="translate(-0.494 0)" fill="#039be5"/>
      <path id="Контур_5909" data-name="Контур 5909" d="M5.989,15.44l21.05-8.116c.977-.353,1.83.238,1.514,1.716l0,0L24.97,25.923c-.266,1.2-.977,1.488-1.972.924L17.54,22.825l-2.633,2.536a1.377,1.377,0,0,1-1.1.537l.388-5.555L24.31,11.2c.44-.388-.1-.606-.679-.22l-12.5,7.871L5.741,17.174c-1.17-.371-1.2-1.17.247-1.734Z" transform="translate(3.668 6.304)" fill="#fff"/>
    </g>
  </g>
</svg>
